<svg width="360" height="240" viewBox="0 0 360 240" xmlns="http://www.w3.org/2000/svg">
  
    <g transform="translate(0, 0)">
      <rect x="5" y="5" width="110" height="110" rx="4" fill="#0d1117" stroke="#30363d"/>

      <!-- Trophy Icon -->
      <g transform="translate(60, 40)">
        <path d="M-15,-15 L-15,5 Q-15,15 0,20 Q15,15 15,5 L15,-15 L10,-15 L10,-20 L-10,-20 L-10,-15 Z"
              fill="none" stroke="#DAA520" stroke-width="2"/>
        <rect x="-8" y="20" width="16" height="5" fill="#DAA520"/>
        <rect x="-12" y="25" width="24" height="3" fill="#DAA520"/>
      </g>

      <text x="60" y="75" text-anchor="middle" style="font: 600 12px 'Segoe UI', Sans-Serif; fill: #c9d1d9;">Commits</text>
      <text x="60" y="92" text-anchor="middle" style="font: 800 14px 'Segoe UI', Sans-Serif; fill: #DAA520;">S</text>
      <text x="60" y="107" text-anchor="middle" style="font: 400 10px 'Segoe UI', Sans-Serif; fill: #8b949e;">1,894</text>
    </g>
    <g transform="translate(120, 0)">
      <rect x="5" y="5" width="110" height="110" rx="4" fill="#0d1117" stroke="#30363d"/>

      <!-- Trophy Icon -->
      <g transform="translate(60, 40)">
        <path d="M-15,-15 L-15,5 Q-15,15 0,20 Q15,15 15,5 L15,-15 L10,-15 L10,-20 L-10,-20 L-10,-15 Z"
              fill="none" stroke="#DAA520" stroke-width="2"/>
        <rect x="-8" y="20" width="16" height="5" fill="#DAA520"/>
        <rect x="-12" y="25" width="24" height="3" fill="#DAA520"/>
      </g>

      <text x="60" y="75" text-anchor="middle" style="font: 600 12px 'Segoe UI', Sans-Serif; fill: #c9d1d9;">PRs</text>
      <text x="60" y="92" text-anchor="middle" style="font: 800 14px 'Segoe UI', Sans-Serif; fill: #DAA520;">S</text>
      <text x="60" y="107" text-anchor="middle" style="font: 400 10px 'Segoe UI', Sans-Serif; fill: #8b949e;">406</text>
    </g>
    <g transform="translate(240, 0)">
      <rect x="5" y="5" width="110" height="110" rx="4" fill="#0d1117" stroke="#30363d"/>

      <!-- Trophy Icon -->
      <g transform="translate(60, 40)">
        <path d="M-15,-15 L-15,5 Q-15,15 0,20 Q15,15 15,5 L15,-15 L10,-15 L10,-20 L-10,-20 L-10,-15 Z"
              fill="none" stroke="#C0C0C0" stroke-width="2"/>
        <rect x="-8" y="20" width="16" height="5" fill="#C0C0C0"/>
        <rect x="-12" y="25" width="24" height="3" fill="#C0C0C0"/>
      </g>

      <text x="60" y="75" text-anchor="middle" style="font: 600 12px 'Segoe UI', Sans-Serif; fill: #c9d1d9;">Issues</text>
      <text x="60" y="92" text-anchor="middle" style="font: 800 14px 'Segoe UI', Sans-Serif; fill: #C0C0C0;">AAA</text>
      <text x="60" y="107" text-anchor="middle" style="font: 400 10px 'Segoe UI', Sans-Serif; fill: #8b949e;">61</text>
    </g>
    <g transform="translate(0, 120)">
      <rect x="5" y="5" width="110" height="110" rx="4" fill="#0d1117" stroke="#30363d"/>

      <!-- Trophy Icon -->
      <g transform="translate(60, 40)">
        <path d="M-15,-15 L-15,5 Q-15,15 0,20 Q15,15 15,5 L15,-15 L10,-15 L10,-20 L-10,-20 L-10,-15 Z"
              fill="none" stroke="#808080" stroke-width="2"/>
        <rect x="-8" y="20" width="16" height="5" fill="#808080"/>
        <rect x="-12" y="25" width="24" height="3" fill="#808080"/>
      </g>

      <text x="60" y="75" text-anchor="middle" style="font: 600 12px 'Segoe UI', Sans-Serif; fill: #c9d1d9;">Stars</text>
      <text x="60" y="92" text-anchor="middle" style="font: 800 14px 'Segoe UI', Sans-Serif; fill: #808080;">C</text>
      <text x="60" y="107" text-anchor="middle" style="font: 400 10px 'Segoe UI', Sans-Serif; fill: #8b949e;">0</text>
    </g>
    <g transform="translate(120, 120)">
      <rect x="5" y="5" width="110" height="110" rx="4" fill="#0d1117" stroke="#30363d"/>

      <!-- Trophy Icon -->
      <g transform="translate(60, 40)">
        <path d="M-15,-15 L-15,5 Q-15,15 0,20 Q15,15 15,5 L15,-15 L10,-15 L10,-20 L-10,-20 L-10,-15 Z"
              fill="none" stroke="#808080" stroke-width="2"/>
        <rect x="-8" y="20" width="16" height="5" fill="#808080"/>
        <rect x="-12" y="25" width="24" height="3" fill="#808080"/>
      </g>

      <text x="60" y="75" text-anchor="middle" style="font: 600 12px 'Segoe UI', Sans-Serif; fill: #c9d1d9;">Followers</text>
      <text x="60" y="92" text-anchor="middle" style="font: 800 14px 'Segoe UI', Sans-Serif; fill: #808080;">C</text>
      <text x="60" y="107" text-anchor="middle" style="font: 400 10px 'Segoe UI', Sans-Serif; fill: #8b949e;">6</text>
    </g>
    <g transform="translate(240, 120)">
      <rect x="5" y="5" width="110" height="110" rx="4" fill="#0d1117" stroke="#30363d"/>

      <!-- Trophy Icon -->
      <g transform="translate(60, 40)">
        <path d="M-15,-15 L-15,5 Q-15,15 0,20 Q15,15 15,5 L15,-15 L10,-15 L10,-20 L-10,-20 L-10,-15 Z"
              fill="none" stroke="#DAA520" stroke-width="2"/>
        <rect x="-8" y="20" width="16" height="5" fill="#DAA520"/>
        <rect x="-12" y="25" width="24" height="3" fill="#DAA520"/>
      </g>

      <text x="60" y="75" text-anchor="middle" style="font: 600 12px 'Segoe UI', Sans-Serif; fill: #c9d1d9;">Repos</text>
      <text x="60" y="92" text-anchor="middle" style="font: 800 14px 'Segoe UI', Sans-Serif; fill: #DAA520;">S</text>
      <text x="60" y="107" text-anchor="middle" style="font: 400 10px 'Segoe UI', Sans-Serif; fill: #8b949e;">40</text>
    </g>
</svg>